<?xml version="1.0" encoding="UTF-8"?>
<svg viewBox="0 0 251 198" version="1.1" xmlns="http://www.w3.org/2000/svg" xmlns:xlink="http://www.w3.org/1999/xlink">
    <title>Combined Shape</title>
    <g id="Assets" stroke="none" stroke-width="1" fill="none" fill-rule="evenodd">
        <g id="Design-Elements" transform="translate(-362.000000, -3588.000000)" stroke="#F15F3A" stroke-width="9">
            <g id="Group-Copy-3" transform="translate(367.000000, 3593.000000)">
                <path d="M211.430298,7.90220096 C236.22382,22.2167479 247.195598,52.2410569 237.473204,79.1687391 C223.646176,117.464909 201.81125,146.159384 171.968428,165.252164 C156.124662,175.388656 143.020658,182.192251 132.373053,185.499348 C129.062065,187.260826 125.141112,188.016341 120.574296,187.788842 C116.005028,188.016451 112.083748,187.260954 108.767356,185.49859 C98.1249147,182.192251 85.0209108,175.388656 69.1771448,165.252164 C39.3343227,146.159384 17.4993973,117.464909 3.67236855,79.1687391 C-6.05002555,52.2410569 4.9217527,22.2167479 29.7152753,7.90220096 C54.2830766,-6.28202572 85.4997275,-0.673578144 103.593716,21.1753745 C109.959882,28.8626679 115.619813,36.6578772 120.573508,44.5610026 C125.52576,36.6578772 131.185691,28.8626679 137.551857,21.1753745 C155.645845,-0.673578144 186.862496,-6.28202572 211.430298,7.90220096 Z" id="Combined-Shape"></path>
            </g>
        </g>
    </g>
</svg>