<?xml version="1.0" encoding="UTF-8"?>
<svg viewBox="0 0 68 105" version="1.1" xmlns="http://www.w3.org/2000/svg" xmlns:xlink="http://www.w3.org/1999/xlink">
    <title>pattern-4</title>
    <g id="Assets" stroke="none" stroke-width="1" fill="none" fill-rule="evenodd">
        <g id="Components" transform="translate(-307.000000, -2835.000000)">
            <g id="pattern-4" transform="translate(307.000000, 2835.000000)">
                <g id="Group-3-Copy-4" transform="translate(36.606602, 11.500000) rotate(-45.000000) translate(-36.606602, -11.500000) translate(29.106602, 4.000000)" fill="#FAB300">
                    <path d="M11.1266638,0.855548512 C11.9650208,0.0172939748 13.316828,0.00874035704 14.1656636,0.829887658 L14.1954446,0.859246882 L14.1954446,0.859246882 C15.0291703,1.69690921 15.0360592,3.04809521 14.2173392,3.89425695 L14.1917547,3.92026477 L10.3219774,7.78947404 L12.8235559,10.2907424 C13.6592987,11.126383 13.6694452,12.4775484 12.8527675,13.3256906 L12.8235559,13.3554586 C11.976556,14.202355 10.6054649,14.202355 9.75846499,13.3554586 L7.25687555,10.8541603 L3.82554833,14.285204 C2.98719132,15.1234585 1.63538416,15.1320122 0.786548572,14.3108649 L0.756767512,14.2815056 C-0.0769581884,13.4438433 -0.0838471138,12.0926573 0.73487293,11.2464956 L0.760457408,11.2204878 L4.19186228,7.78947404 L1.2519767,4.85001015 C0.416233916,4.01436953 0.406087449,2.66320416 1.2227651,1.81506196 L1.2519767,1.78529389 C2.09897657,0.938397556 3.47006775,0.938397556 4.31706762,1.78529389 L7.25687555,4.72478781 L11.1266638,0.855548512 Z" id="Path"></path>
                </g>
                <g id="Group-2-Copy-2" transform="translate(0.000000, 30.000000)" fill="#FFEAB2">
                    <path d="M33.6475421,0 C38.2903866,0 42.2549718,3.32982842 43.0275376,7.87819901 C43.914427,13.0996049 43.6147359,17.8653091 42.1284645,22.1753115 C45.1424016,18.5876186 49.2163418,15.8764947 54.3497994,14.0413676 C58.7262026,12.4768642 63.602408,14.2476064 65.9317529,18.2472227 C68.2382461,22.2076012 67.3276865,27.2438817 63.7780656,30.1591848 C59.4341833,33.7268238 54.8785078,35.9204212 50.1110391,36.7399771 C54.8995312,37.4759561 59.4388843,39.6385384 63.7289842,43.2274353 C67.284251,46.2015952 68.178844,51.2815683 65.8511725,55.2783113 C63.5429522,59.2416553 58.6967007,60.9768282 54.3743019,59.3875426 C48.8725421,57.3646176 44.5548619,54.401687 41.4212613,50.4987508 C43.520839,55.1897738 44.0484726,60.4492659 43.0047833,66.2770092 C42.1838432,70.860961 38.1721955,74.2 33.4858011,74.2 C28.8429567,74.2 24.8783714,70.8701716 24.1058056,66.321801 C23.1270594,60.5596037 23.5934151,55.3523924 25.5048729,50.7001671 C22.4522548,54.5519635 18.2338921,57.4400255 12.8502006,59.3646071 C8.47379742,60.9291105 3.59759197,59.1583683 1.26824709,55.158752 C-1.03824605,51.1983735 -0.12768651,46.162093 3.42193444,43.2467899 C7.76591348,39.6790715 12.3216951,37.4854558 17.0892794,36.6659428 C12.3004688,35.9300186 7.76111569,33.7674363 3.47101579,30.1785394 C-0.0842510125,27.2043795 -0.97884399,22.1244064 1.3488275,18.1276634 C3.65704775,14.1643194 8.50329935,12.4291465 12.8256981,14.0184321 C17.9063471,15.8865202 21.9772411,18.5562229 25.0383801,22.0275401 C23.5103746,17.7690423 23.2072453,13.0674197 24.1285599,7.92299083 C24.9495,3.33903898 28.9611477,0 33.6475421,0 Z" id="Path"></path>
                </g>
                <circle id="Oval-Copy-5" fill="#F15F3A" cx="57.5" cy="27.5" r="5.5"></circle>
            </g>
        </g>
    </g>
</svg>