<?xml version="1.0" encoding="UTF-8"?>
<svg viewBox="0 0 100 109" version="1.1" xmlns="http://www.w3.org/2000/svg" xmlns:xlink="http://www.w3.org/1999/xlink">
    <title>pattern-2</title>
    <g id="Assets" stroke="none" stroke-width="1" fill="none" fill-rule="evenodd">
        <g id="Components" transform="translate(-481.000000, -2832.000000)">
            <g id="pattern-2" transform="translate(531.000000, 2886.500000) rotate(-149.000000) translate(-531.000000, -2886.500000) translate(499.000000, 2843.000000)">
                <path d="M34.0582828,10.1095139 C36.2235315,8.85958346 38.9818129,9.5799882 40.26269,11.7159561 L40.3073291,11.7920152 C41.5484136,13.9533769 40.8249569,16.7094845 38.6953927,17.9862398 L28.6345494,23.7946212 L32.3650166,30.2550546 C33.6113132,32.413399 32.8945034,35.1712426 30.7680186,36.4531468 L30.6922672,36.49784 C28.5046965,37.7606563 25.7118023,37.0123026 24.4487186,34.8248862 L20.7182457,28.3643857 L11.8559846,33.4805264 C9.69073594,34.7304568 6.93245446,34.0100521 5.65157736,31.8740842 L5.60693827,31.7980251 C4.36585385,29.6366634 5.08931051,26.8805558 7.21887472,25.6038005 L16.1475881,20.44875 L11.7634666,12.8564862 C10.5171699,10.6981418 11.2339797,7.94029825 13.3604646,6.65839401 L13.4362159,6.61370081 C15.6237867,5.3508845 18.4166808,6.09923823 19.6797645,8.28665462 L24.0637115,15.8789371 L34.0582828,10.1095139 Z" id="Path" fill="#FFC6AF" transform="translate(22.957134, 21.555770) rotate(-24.000000) translate(-22.957134, -21.555770) "></path>
                <path d="M32.389016,45.5593571 C34.5998943,45.5593571 36.487792,47.1300309 36.8556805,49.2754887 C37.2780088,51.738416 37.1352987,53.9863897 36.4275504,56.0194097 C37.8627586,54.3271017 39.8027301,53.0482697 42.2472337,52.1826437 C44.3312352,51.4446704 46.6532378,52.2799262 47.7624497,54.1665376 C48.8607797,56.0346407 48.42718,58.4102447 46.7368843,59.7853877 C44.6683689,61.4682362 42.4989996,62.502952 40.2287765,62.889535 C42.5090108,63.2366949 44.6706075,64.2567809 46.7135122,65.9496568 C48.4064964,67.3525624 48.832493,69.7487761 47.7240781,71.6340322 C46.6249256,73.5035342 44.3171867,74.3220119 42.2589016,73.5723489 C39.639016,72.618139 37.5829778,71.2205302 36.090787,69.3795226 C37.0905859,71.5922693 37.34184,74.0731618 36.8448451,76.8220973 C36.4539213,78.9843387 34.5436128,80.5593571 32.3119964,80.5593571 C30.1011181,80.5593571 28.2132204,78.9886833 27.8453319,76.8432255 C27.3792623,74.1252079 27.6013364,71.6689762 28.5115544,69.4745303 C27.0579268,71.2914154 25.0491826,72.6537088 22.48552,73.5615303 C20.4015185,74.2995036 18.0795159,73.4642478 16.970304,71.5776364 C15.871974,69.7095333 16.3055738,67.3339293 17.9958695,65.9587863 C20.0644309,64.2759003 22.2338507,63.2411759 24.5041289,62.8546132 C22.223743,62.5074791 20.0621462,61.4873931 18.0192415,59.7945172 C16.3262573,58.3916116 15.9002607,55.9953978 17.0086757,54.1101418 C18.1078282,52.2406398 20.415567,51.422162 22.4738521,52.1718251 C24.8932088,53.0529987 26.8317298,54.3122924 28.289415,55.9497062 C27.5617934,53.9409808 27.417446,51.7232343 27.8561673,49.2966169 C28.2470911,47.1343755 30.1573996,45.5593571 32.389016,45.5593571 Z" id="Path" fill="#FFEAB2" transform="translate(32.366377, 63.059357) rotate(45.000000) translate(-32.366377, -63.059357) "></path>
                <circle id="Oval-Copy-5" fill="#FAB300" transform="translate(52.866377, 21.059357) rotate(45.000000) translate(-52.866377, -21.059357) " cx="52.8663769" cy="21.0593571" r="5.5"></circle>
                <path d="M60.6626652,38.9806448 C61.2187183,38.4246597 62.1153251,38.4189864 62.6783283,38.9636249 L62.698081,38.9830978 L62.698081,38.9830978 C63.2510623,39.5386902 63.2556315,40.434885 62.7126029,40.9961147 L62.6956336,41.0133648 L60.1289446,43.5796771 L61.7881548,45.2386816 C62.342474,45.792933 62.3492038,46.6891141 61.8075299,47.2516574 L61.7881548,47.2714015 C61.2263692,47.8331185 60.316972,47.8331185 59.7551864,47.2714015 L58.0959689,45.6123771 L55.8200886,47.8880694 C55.2640354,48.4440545 54.3674287,48.4497279 53.8044255,47.9050893 L53.7846727,47.8856164 C53.2316914,47.330024 53.2271222,46.4338292 53.7701508,45.8725995 L53.7871201,45.8553494 L56.0630519,43.5796771 L54.1131278,41.6300326 C53.5588086,41.0757812 53.5520788,40.1796001 54.0937528,39.6170568 L54.1131278,39.5973127 C54.6749134,39.0355957 55.5843106,39.0355957 56.1460963,39.5973127 L58.0959689,41.546977 L60.6626652,38.9806448 Z" id="Path" fill="#F15F3A" transform="translate(58.241377, 43.434357) rotate(87.000000) translate(-58.241377, -43.434357) "></path>
            </g>
        </g>
    </g>
</svg>