<?xml version="1.0" encoding="UTF-8"?>
<svg viewBox="0 0 108 116" version="1.1" xmlns="http://www.w3.org/2000/svg" xmlns:xlink="http://www.w3.org/1999/xlink">
    <title>pattern-3</title>
    <g id="Assets" stroke="none" stroke-width="1" fill="none" fill-rule="evenodd">
        <g id="Components" transform="translate(-93.000000, -2824.000000)">
            <g id="pattern-3" transform="translate(93.000000, 2824.000000)">
                <g id="Group-3-Copy" transform="translate(81.000000, 24.000000)" fill="#FFEAB2">
                    <path d="M18.9703496,1.09534807 C20.4160877,-0.350213328 22.7472653,-0.364963954 24.2110736,1.05109619 L24.2624308,1.10172587 L24.2624308,1.10172587 C25.7001822,2.54626601 25.7120621,4.87637248 24.3001877,6.33556977 L24.2560676,6.38041998 L17.582676,13.0528319 L21.8966227,17.3662436 C23.3378526,18.8072973 23.3553501,21.1373682 21.9469978,22.5999808 L21.8966227,22.6513155 C20.4359801,24.1117796 18.0715473,24.1117796 16.6109047,22.6513155 L12.2969392,18.337852 L6.37965044,24.2546519 C4.93391232,25.7002133 2.60273468,25.714964 1.13892637,24.2989038 L1.08756923,24.2482741 C-0.35018223,22.803734 -0.362062112,20.4736275 1.04981225,19.0144302 L1.09393242,18.96958 L7.01135511,13.0528319 L1.94155242,7.9837564 C0.500322521,6.54270268 0.482825042,4.21263178 1.89117732,2.75001922 L1.94155242,2.69868449 C3.40219505,1.2382204 5.7666278,1.2382204 7.22727044,2.69868449 L12.2969392,7.76781176 L18.9703496,1.09534807 Z" id="Path"></path>
                </g>
                <g id="Group-3-Copy-3" transform="translate(74.000000, 5.000000) rotate(-270.000000) translate(-74.000000, -5.000000) translate(69.000000, 0.000000)" fill="#FAB300">
                    <path d="M7.29628829,0.421287718 C7.85234141,-0.134697434 8.7489482,-0.140370752 9.3119514,0.404267765 L9.33170414,0.423740719 L9.33170414,0.423740719 C9.88468547,0.979333081 9.88925466,1.87552788 9.34622606,2.4367576 L9.32925676,2.45400768 L6.7625677,5.02031996 L8.42177796,6.67932446 C8.97609715,7.23357589 8.98282695,8.12975701 8.441153,8.6923003 L8.42177796,8.71204443 C7.85999233,9.27376139 6.95059512,9.27376139 6.38880949,8.71204443 L4.72959201,7.05302001 L2.45371171,9.32871228 C1.89765859,9.88469743 1.0010518,9.89037075 0.438048603,9.34573224 L0.418295859,9.32625928 C-0.134685473,8.77066692 -0.139254658,7.87447212 0.403773942,7.3132424 L0.420743239,7.29599232 L2.69667504,5.02031996 L0.746750929,3.07067554 C0.192431739,2.51642411 0.185701939,1.62024299 0.727375891,1.0576997 L0.746750929,1.03795557 C1.30853656,0.476238615 2.21793377,0.476238615 2.7797194,1.03795557 L4.72959201,2.98761991 L7.29628829,0.421287718 Z" id="Path"></path>
                </g>
                <g id="Group-3-Copy-4" transform="translate(40.000000, 111.000000) rotate(-270.000000) translate(-40.000000, -111.000000) translate(35.000000, 106.000000)" fill="#FAB300">
                    <path d="M7.29628829,0.421287718 C7.85234141,-0.134697434 8.7489482,-0.140370752 9.3119514,0.404267765 L9.33170414,0.423740719 L9.33170414,0.423740719 C9.88468547,0.979333081 9.88925466,1.87552788 9.34622606,2.4367576 L9.32925676,2.45400768 L6.7625677,5.02031996 L8.42177796,6.67932446 C8.97609715,7.23357589 8.98282695,8.12975701 8.441153,8.6923003 L8.42177796,8.71204443 C7.85999233,9.27376139 6.95059512,9.27376139 6.38880949,8.71204443 L4.72959201,7.05302001 L2.45371171,9.32871228 C1.89765859,9.88469743 1.0010518,9.89037075 0.438048603,9.34573224 L0.418295859,9.32625928 C-0.134685473,8.77066692 -0.139254658,7.87447212 0.403773942,7.3132424 L0.420743239,7.29599232 L2.69667504,5.02031996 L0.746750929,3.07067554 C0.192431739,2.51642411 0.185701939,1.62024299 0.727375891,1.0576997 L0.746750929,1.03795557 C1.30853656,0.476238615 2.21793377,0.476238615 2.7797194,1.03795557 L4.72959201,2.98761991 L7.29628829,0.421287718 Z" id="Path"></path>
                </g>
                <g id="Group-Copy" transform="translate(36.500000, 40.500000) rotate(-14.000000) translate(-36.500000, -40.500000) translate(5.000000, 16.000000)" fill="#FFC6AF">
                    <path d="M54.7403767,2.0244599 C61.1641589,5.74184631 64.0068495,13.5389466 61.4878633,20.5318749 C57.9054026,30.4771189 52.2481667,37.9288707 44.5161557,42.8871303 C40.4111762,45.5195056 37.0160448,47.286351 34.2573445,48.1451807 C33.399497,48.602624 32.3836128,48.7988259 31.2003912,48.739746 C30.0165343,48.7988543 29.0005652,48.6026571 28.1413175,48.1449837 C25.3839552,47.286351 21.9888238,45.5195056 17.8838443,42.8871303 C10.1518333,37.9288707 4.49459744,30.4771189 0.912136715,20.5318749 C-1.60684952,13.5389466 1.23584108,5.74184631 7.65962328,2.0244599 C14.0249231,-1.65908327 22.112881,-0.202609171 26.8008731,5.47140902 C28.4502905,7.46774464 29.9167284,9.49210527 31.2001869,11.5444909 C32.4832716,9.49210527 33.9497095,7.46774464 35.5991269,5.47140902 C40.287119,-0.202609171 48.3750769,-1.65908327 54.7403767,2.0244599 Z" id="Path"></path>
                </g>
                <path d="M25,79 C20.581722,79 17,82.581722 17,87 C17,91.418278 20.581722,95 25,95 C29.418278,95 33,91.418278 33,87 C33,82.581722 29.418278,79 25,79 Z M25,82.3333333 C27.5773288,82.3333333 29.6666667,84.4226712 29.6666667,87 C29.6666667,89.5773288 27.5773288,91.6666667 25,91.6666667 C22.4226712,91.6666667 20.3333333,89.5773288 20.3333333,87 C20.3333333,84.4226712 22.4226712,82.3333333 25,82.3333333 Z" id="Oval-Copy-4" fill="#F15F3A" fill-rule="nonzero"></path>
            </g>
        </g>
    </g>
</svg>