<?xml version="1.0" encoding="utf-8"?>
<!-- Generator: Adobe Illustrator 24.0.0, SVG Export Plug-In . SVG Version: 6.00 Build 0)  -->
<svg version="1.1" id="Layer_1" xmlns="http://www.w3.org/2000/svg" xmlns:xlink="http://www.w3.org/1999/xlink" x="0px" y="0px"
	 viewBox="0 0 792 260.71" style="enable-background:new 0 0 792 260.71;" xml:space="preserve">
<style type="text/css">
	.st0{fill:#FF3729;}
</style>
<g>
	<path class="st0" d="M80.83,208.06V52.65h32.52c7.13,0,13.21,1.09,18.22,3.27c5.02,2.18,9.13,5.1,12.33,8.73
		c3.2,3.64,5.49,7.82,6.88,12.55c1.38,4.73,2.07,9.64,2.07,14.73v5.67c0,4.22-0.33,7.79-0.98,10.69c-0.65,2.91-1.64,5.46-2.95,7.64
		c-2.48,4.08-6.26,7.57-11.35,10.48c5.24,2.48,9.09,6.11,11.57,10.91c2.47,4.8,3.71,11.35,3.71,19.64v8.73
		c0,13.68-3.31,24.16-9.93,31.43c-6.62,7.28-17.21,10.91-31.76,10.91H80.83z M103.09,73.6v42.78h10.04c7.42,0,12.4-1.86,14.95-5.57
		c2.54-3.71,3.82-9.13,3.82-16.26c0-6.98-1.42-12.22-4.26-15.72c-2.84-3.49-7.97-5.24-15.39-5.24H103.09z M103.09,136.03v49.76h9.6
		c4.51,0,8.04-0.66,10.58-1.96c2.54-1.31,4.47-3.13,5.78-5.46c1.31-2.33,2.11-5.09,2.4-8.29c0.29-3.2,0.44-6.69,0.44-10.48
		c0-3.93-0.22-7.35-0.66-10.26c-0.44-2.91-1.31-5.38-2.62-7.42c-1.46-2.04-3.42-3.53-5.89-4.47c-2.48-0.94-5.75-1.42-9.82-1.42
		H103.09z"/>
	<path class="st0" d="M195.63,208.06V52.65h66.35V73.6H217.9v45.62h38.42v20.95H217.9v45.62h44.09v22.26H195.63z"/>
	<path class="st0" d="M288.18,208.06l34.71-155.4h18.55l34.7,155.4h-22.26l-6.55-33.39h-30.34l-6.55,33.39H288.18z M343.18,153.71
		l-10.91-56.31h-0.44l-10.91,56.31H343.18z"/>
	<path class="st0" d="M479.59,163.75v9.6c0,4.8-0.91,9.35-2.73,13.64c-1.82,4.29-4.33,8.11-7.53,11.46c-3.2,3.35-6.95,6-11.24,7.97
		c-4.29,1.96-8.92,2.95-13.86,2.95c-4.22,0-8.51-0.58-12.88-1.75s-8.29-3.2-11.79-6.11c-3.49-2.91-6.37-6.66-8.62-11.24
		c-2.26-4.58-3.38-10.44-3.38-17.57V87.14c0-5.09,0.87-9.82,2.62-14.19c1.75-4.37,4.22-8.15,7.42-11.35
		c3.2-3.2,7.02-5.71,11.46-7.53c4.44-1.82,9.35-2.73,14.73-2.73c10.48,0,18.99,3.42,25.54,10.26c3.2,3.35,5.71,7.31,7.53,11.9
		c1.82,4.58,2.73,9.57,2.73,14.95v8.73h-22.26v-7.42c0-4.37-1.24-8.15-3.71-11.35c-2.48-3.2-5.82-4.8-10.04-4.8
		c-5.53,0-9.2,1.71-11.02,5.13c-1.82,3.42-2.73,7.75-2.73,12.99v79.45c0,4.51,0.98,8.29,2.95,11.35c1.96,3.06,5.49,4.58,10.59,4.58
		c1.45,0,3.02-0.25,4.69-0.76c1.67-0.51,3.24-1.34,4.69-2.51c1.31-1.16,2.4-2.76,3.27-4.8c0.87-2.04,1.31-4.58,1.31-7.64v-7.64
		H479.59z"/>
	<path class="st0" d="M518.23,89.32c0-6.25,1.09-11.79,3.27-16.59s5.09-8.8,8.73-12c3.49-3.06,7.46-5.38,11.89-6.98
		c4.44-1.6,8.91-2.4,13.42-2.4c4.51,0,8.98,0.8,13.42,2.4c4.44,1.6,8.47,3.93,12.11,6.98c3.49,3.2,6.33,7.2,8.51,12
		c2.18,4.8,3.27,10.33,3.27,16.59v82.07c0,6.55-1.09,12.15-3.27,16.81c-2.18,4.66-5.02,8.51-8.51,11.57
		c-3.64,3.2-7.68,5.6-12.11,7.2c-4.44,1.6-8.92,2.4-13.42,2.4c-4.51,0-8.99-0.8-13.42-2.4c-4.44-1.6-8.4-4-11.89-7.2
		c-3.64-3.06-6.55-6.91-8.73-11.57c-2.18-4.66-3.27-10.26-3.27-16.81V89.32z M540.49,171.39c0,5.38,1.49,9.35,4.47,11.9
		c2.98,2.55,6.51,3.82,10.59,3.82c4.07,0,7.6-1.27,10.59-3.82c2.98-2.54,4.47-6.51,4.47-11.9V89.32c0-5.38-1.49-9.35-4.47-11.9
		c-2.98-2.54-6.51-3.82-10.59-3.82c-4.08,0-7.61,1.28-10.59,3.82c-2.98,2.55-4.47,6.51-4.47,11.9V171.39z"/>
	<path class="st0" d="M633.47,208.06V52.65h21.39l33.61,93.64h0.44V52.65h22.26v155.4h-20.96l-34.05-93.42h-0.44v93.42H633.47z"/>
</g>
</svg>
