<svg width="53" height="63" viewBox="0 0 53 63" fill="none" xmlns="http://www.w3.org/2000/svg">
<path d="M26.9379 0.00668999C28.4633 0.00668999 29.9618 0.0334499 31.4871 0.00668999C33.8955 -0.02007 35.6884 1.05033 37.1335 2.89676C39.194 5.62628 41.2545 8.30228 43.3418 10.9783C45.991 14.3768 48.6403 17.7753 51.2895 21.1738C52.4402 22.6724 52.3867 24.7061 51.343 26.285C50.1121 28.0779 48.9881 29.9511 47.8107 31.7708C46.66 33.5637 45.4826 35.3298 44.3319 37.1227C41.6291 41.2973 38.8996 45.4718 36.1969 49.6464C33.9223 53.1787 31.6477 56.711 29.3731 60.2433C28.9985 60.8321 28.6506 61.4208 28.2492 61.9827C27.2591 63.3743 25.7873 63.3207 24.8774 61.9292C23.1915 59.28 21.4789 56.6575 19.793 54.035C17.6255 50.6633 15.4847 47.2915 13.3171 43.9465C11.3101 40.8424 9.24961 37.7382 7.24261 34.6341C5.42294 31.851 3.63002 29.0412 1.8371 26.2314C0.927265 24.8132 0.632906 23.2611 1.5695 21.7625C2.18498 20.7724 2.96102 19.9161 3.68354 19.0063C6.41305 15.581 9.16933 12.1825 11.8988 8.7572C13.5847 6.64316 15.2438 4.50236 16.9297 2.38833C18.2142 0.782728 19.9268 0.0869698 21.9338 0.0334499C23.5929 -0.02007 25.2788 0.00668999 26.9379 0.00668999Z" fill="#F15F3A"/>
</svg>
