<?xml version="1.0" encoding="UTF-8"?>
<svg viewBox="0 0 71 103" version="1.1" xmlns="http://www.w3.org/2000/svg" xmlns:xlink="http://www.w3.org/1999/xlink">
    <title>pattern-1</title>
    <g id="Assets" stroke="none" stroke-width="1" fill="none" fill-rule="evenodd">
        <g id="Components" transform="translate(-677.000000, -2823.000000)">
            <g id="pattern-1" transform="translate(677.000000, 2823.000000)">
                <circle id="Oval-Copy-6" fill="#FFC6AF" cx="64" cy="23" r="7"></circle>
                <path d="M18.7084315,79.0802249 C20.1342088,77.654622 22.4332005,77.640075 23.8767985,79.036584 L23.9274465,79.0865147 L23.9274465,79.0865147 C25.3453474,80.5111105 25.3570632,82.8090458 23.9646822,84.2480964 L23.9211712,84.2923274 L17.3399172,90.8726153 L21.5943025,95.126473 C23.0156337,96.5476305 23.0328896,98.8455308 21.6439821,100.287949 L21.5943025,100.338575 C20.1538265,101.778875 17.8220388,101.778875 16.3815628,100.338575 L12.127159,96.0846667 L6.29156849,101.919775 C4.86579125,103.345378 2.56679949,103.359925 1.12320155,101.963416 L1.07255348,101.913485 C-0.345347367,100.48889 -0.357063226,98.1909542 1.0353178,96.7519036 L1.07882882,96.7076726 L6.91455139,90.8726153 L1.91474597,85.873527 C0.493414715,84.4523695 0.476158819,82.1544692 1.86506639,80.7120505 L1.91474597,80.6614245 C3.35522194,79.2211247 5.68700967,79.2211247 7.12748564,80.6614245 L12.127159,85.6605639 L18.7084315,79.0802249 Z" id="Path-Copy" fill="#FAB300"></path>
                <path d="M24.5,16 C10.9690236,16 0,26.9690236 0,40.5 C0,54.0309764 10.9690236,65 24.5,65 C38.0309764,65 49,54.0309764 49,40.5 C49,26.9690236 38.0309764,16 24.5,16 Z M24.5,26.0512821 C32.4798066,26.0512821 38.9487179,32.5201934 38.9487179,40.5 C38.9487179,48.4798066 32.4798066,54.9487179 24.5,54.9487179 C16.5201934,54.9487179 10.0512821,48.4798066 10.0512821,40.5 C10.0512821,32.5201934 16.5201934,26.0512821 24.5,26.0512821 Z" id="Oval-Copy-7" fill="#F15F3A" fill-rule="nonzero"></path>
                <path d="M52.2317099,3.47529896 C52.8590519,2.84803366 53.8706082,2.841633 54.5057913,3.45609697 L54.5280765,3.47806645 L54.5280765,3.47806645 C55.1519528,4.1048886 55.1571078,5.11598017 54.5444602,5.74916243 L54.5253153,5.76862405 L51.6295636,8.66395072 L53.5014931,10.5356481 C54.1268788,11.1609574 54.1344714,12.1720335 53.5233521,12.8066978 L53.5014931,12.8289732 C52.8676837,13.4627052 51.8416971,13.4627052 51.2078876,12.8289732 L49.33595,10.9572533 L46.7682901,13.524701 C46.1409481,14.1519663 45.1293918,14.158367 44.4942087,13.543903 L44.4719235,13.5219335 C43.8480472,12.8951114 43.8428922,11.8840198 44.4555398,11.2508376 L44.4746847,11.2313759 L47.0424026,8.66395072 L44.8424882,6.46435189 C44.2171025,5.83904258 44.2095099,4.82796645 44.8206292,4.19330223 L44.8424882,4.1710268 C45.4762977,3.53729485 46.5022843,3.53729485 47.1360937,4.1710268 L49.33595,6.3706481 L52.2317099,3.47529896 Z" id="Path" fill="#FFEAB2" transform="translate(49.500000, 8.500000) rotate(-60.000000) translate(-49.500000, -8.500000) "></path>
            </g>
        </g>
    </g>
</svg>