<?xml version="1.0" encoding="UTF-8"?>
<svg viewBox="0 0 96 106" version="1.1" xmlns="http://www.w3.org/2000/svg" xmlns:xlink="http://www.w3.org/1999/xlink">
    <title>Path</title>
    <g id="Assets" stroke="none" stroke-width="1" fill="none" fill-rule="evenodd">
        <g id="Design-Elements" transform="translate(-774.000000, -3824.000000)" fill="#FFC6AF">
            <g id="Group-2-Copy" transform="translate(774.000000, 3824.000000)">
                <path d="M48.0679173,0 C54.7005522,0 60.3642455,4.75689775 61.4679109,11.25457 C62.7348957,18.7137213 62.3067656,25.5218701 60.1835207,31.6790165 C64.4891451,26.5537408 70.3090597,22.6807067 77.6425705,20.0590966 C83.8945751,17.8240917 90.8605829,20.3537235 94.1882184,26.067461 C97.4832086,31.7251446 96.1824093,38.919831 91.1115222,43.0845497 C84.9059761,48.1811768 78.3978683,51.3148874 71.5871988,52.4856816 C78.4279017,53.5370801 84.9126919,56.6264834 91.041406,61.753479 C96.1203586,66.0022789 97.3983486,73.2593834 94.0731036,78.9690161 C90.7756461,84.6309362 83.8524295,87.1097546 77.6775741,84.8393466 C69.8179173,81.9494537 63.6498028,77.7166957 59.1732304,72.1410725 C62.1726272,78.8425339 62.9263894,86.3560941 61.4354047,94.6814417 C60.2626332,101.229944 54.5317079,106 47.8368587,106 C41.2042238,106 35.5405305,101.243102 34.4368651,94.74543 C33.0386562,86.5137196 33.7048788,79.0748463 36.4355327,72.4288101 C32.0746497,77.9313765 26.0484173,82.0571793 18.3574295,84.8065816 C12.1054249,87.0415864 5.1394171,84.5119547 1.81178156,78.7982172 C-1.48320865,73.1405336 -0.182409299,65.9458471 4.88847777,61.7811285 C11.0941621,56.6843878 17.6024216,53.5506511 24.4132562,52.3799183 C17.5720983,51.328598 11.0873081,48.2391947 4.95859398,43.1121991 C-0.120358589,38.8633993 -1.39834856,31.6062948 1.92689642,25.8966621 C5.22435393,20.234742 12.1475705,17.7559235 18.3224259,20.0263315 C25.5804959,22.6950289 31.3960588,26.5088898 35.7691144,31.4679144 C33.5862495,25.3843461 33.1532076,18.6677425 34.4693713,11.3185583 C35.6421428,4.77005569 41.3730682,0 48.0679173,0 Z" id="Path"></path>
            </g>
        </g>
    </g>
</svg>